<svg xmlns="http://www.w3.org/2000/svg" version="1.1" xmlns:xlink="http://www.w3.org/1999/xlink"
     xmlns:svgjs="http://svgjs.com/svgjs" viewBox="0 0 320 360" data-background-color=""
     preserveAspectRatio="xMidYMid meet" height="360" width="320">
    <rect width="320" height="360" x="0" y="0" opacity="0" fill="transparent" data-fill-palette-color="background"
          id="background"></rect>
    <g id="tight-bounds" transform="matrix(1,0,0,1,160,20)">
        <animateTransform attributeName="transform"
                          attributeType="XML"
                          type="rotate"
                          from="0 170 180"
                          to="360 170 180"
                          dur="5s"
                          repeatCount="indefinite"/>
        <svg viewBox="0 0 320 360" height="360" width="320">
            <g>
                <svg xmlns="http://www.w3.org/2000/svg" version="1.1" xmlns:xlink="http://www.w3.org/1999/xlink"
                     xmlns:svgjs="http://svgjs.com/svgjs"></svg>
            </g>
            <g>
                <svg viewBox="0 0 320 360" height="360" width="320">
                    <g>
                        <path d="M20.961 227.22l3.726 4.658-1.863-6.056c-0.466-2.795-3.726 0.466-1.863 1.398M25.153 224.425c1.397 2.329 2.795 4.658 2.795 6.987 0 3.261 2.795 4.658 5.123 5.589-3.261-3.726-5.124-13.974-7.918-12.576M204.017 26.929c7.918 0 15.371-0.932 23.756 0.931 20.495 5.124 37.729 15.371 49.374 29.811l32.606 52.169c1.397 13.042 4.192 27.482 3.726 43.319 3.261 0 2.795-4.658 6.521-5.59-3.726 9.316-5.59 20.961-6.521 34.469-2.329-7.453 0-18.632 0.466-24.687-3.261 5.124-5.124 1.397-5.124-0.932 0.466-3.726-1.397-3.261-2.795-4.658-5.124-4.658-8.384-9.782-12.11-17.7 2.329-6.055 2.795-14.905-4.658-19.563-2.329-1.397-5.124-3.726-6.521-7.453-1.863-5.124-5.124-11.179-4.193-19.097 0.466-2.329-6.987 5.124-11.179 1.863-18.166-12.576-36.332-27.016-58.224-39.127-11.645 0-20.029-4.192-24.221-9.316-3.726-4.658-0.932-10.713 4.658-11.179 3.261 0 6.987-0.932 9.782 0.932 0.466-1.863 2.329-4.192 4.657-4.192M157.904 16.215l0.932 0.466c4.658 0.932 6.987 7.453 12.11 5.124 0 3.261 0.466 6.521-0.466 8.85-1.397 3.726-5.59 3.726-8.85 3.726-31.208-1.863-49.374 11.179-68.471 22.358-5.124 3.261-10.713 5.59-14.906 9.782-20.029 18.632-41.921 35.866-47.045 70.335l-4.192 38.195c-0.466 4.192-5.124 8.384-4.192 13.508l3.26 22.824c-3.261-3.261-5.124 0.932-4.192 2.795 0.466 1.397 2.329 6.055 5.124 1.863 3.726 6.987 7.453 20.495 12.576 26.55 15.837 18.632 36.332 35.4 53.101 52.169 4.192-0.932 7.453-0.932 8.384-3.727 1.397 2.795-1.397 5.59-3.726 6.056 7.453 4.658 15.837 8.85 27.016 9.781 14.44 0.932 27.948 3.261 40.524 6.522 6.521-1.863 13.042-2.795 20.029-3.261 2.329 0 3.726-3.726 6.521-4.658l0.466-4.658c2.795 4.192 2.329-1.397 0.466-4.192 3.261 2.795 4.192 5.124 5.589 6.987 0-1.397 3.726-6.521 3.727-0.466l0.931-6.055c1.397-0.932 1.863 5.124 3.261 0.931 1.397-4.192 4.192-0.932 6.987-2.329-0.932 1.863-0.466 5.59 2.794 3.261l3.727-3.261c2.329 5.59 6.055 3.261 7.918 2.329 20.495-13.042 40.99-28.413 60.553-43.784l-0.466 6.055 2.329-7.453c2.329 2.329 4.192 0.466 5.124-0.931 2.795-4.658 6.521-9.316 12.577-13.508-7.453 20.029-16.303 35.866-27.482 48.908l-4.658 5.59c0 3.261-0.932 7.453-4.658 7.918-1.863 0.466-5.59-0.932-8.384 1.863-1.397 1.863 3.261 5.59-0.466 2.795-3.261-2.329-6.521 0-10.248 0.932-2.795 0.932 1.863 3.726 2.795 5.589 0.932 1.863 1.863 3.726 1.398 6.056l-5.124-5.59c-6.055 3.261-9.782 9.316-14.906 13.974-2.329 1.863-1.397 5.124-1.397 7.918-3.261 0-6.987-0.932-8.85 0.932-1.397 1.863-0.932 4.658-0.932 7.453-4.658-0.466-5.124-7.453-9.315-6.056-4.192 0.932-8.85 1.397-12.577 3.727 2.795 5.59-4.658 2.329-3.726 3.26-6.987-4.192-13.042-7.453-20.495-4.658-15.837-5.124-35.4-2.795-49.84-0.931 0-2.329 0.466-4.658-0.466-5.124-0.932 2.329-3.726 1.397-3.26 1.397-8.85-6.055-17.7-9.782-27.016-14.905-8.384 0.932-16.303-3.261-18.632-5.59-6.521-6.055-13.974-2.795-20.029-4.192-13.042-3.261-17.7-16.769-19.098-26.084-0.932-4.658-4.658-6.521-6.055-6.056-6.055-19.563-15.371-37.263-22.824-55.429-1.863-4.658-1.397-9.316-1.397-14.44 2.329 0.932 4.658 0.466 4.192-2.794-2.329-15.371-7.918-27.016-13.974-38.195 3.261-15.837 3.726-34.469 11.179-48.443 6.521-12.576 18.632-19.098 27.016-29.811 2.795-3.726 2.795-8.85 5.59-12.11 9.316-9.316 18.632-19.098 28.879-27.482 4.658-3.726 10.247 0 17.234-1.397 2.329-8.384 11.645-15.837 20.495-13.508 3.726 0.932 11.179-8.85 13.508-9.782 3.726-1.397 1.863 3.726 1.863 6.987 8.85-6.987 20.961-10.713 32.14-14.906"
                              fill="#c10000" data-fill-palette-color="tertiary"></path>
                    </g>
                    <g transform="matrix(1,0,0,1,56,146.07268355290645)">
                        <svg viewBox="0 0 208 67.85463289418709" height="67.85463289418709" width="208">
                            <g>
                                <svg viewBox="0 0 208 67.85463289418709" height="67.85463289418709" width="208">
                                    <g>
                                        <svg viewBox="0 0 208 67.85463289418709" height="67.85463289418709" width="208">
                                            <g>
                                                <svg viewBox="0 0 208 67.85463289418709" height="67.85463289418709"
                                                     width="208">
                                                    <g>
                                                        <svg viewBox="0 0 208 67.85463289418709"
                                                             height="67.85463289418709" width="208">
                                                            <g>
                                                                <svg viewBox="0 0 208 43.9774948178857"
                                                                     height="43.9774948178857" width="208">
                                                                    <g transform="matrix(1,0,0,1,0,0)">
                                                                        <svg width="208"
                                                                             viewBox="1.01 -35.64 170.72 36.1"
                                                                             height="43.9774948178857"
                                                                             data-palette-color="#c10000">
                                                                            <path d="M13.32-25.78L18.81-25.78 18.81-19.11 13.32-19.11 13.32 0 4.42 0 4.42-19.11 1.01-19.11 1.01-23.48 4.63-25.66 4.63-26.09Q4.63-31.19 6.7-33.42 8.77-35.64 13.37-35.64L13.37-35.64Q16.71-35.64 20.4-34.43L20.4-34.43 18.5-28.67Q16.86-29.12 15.29-29.12L15.29-29.12Q14.26-29.12 13.79-28.49 13.32-27.86 13.32-26.47L13.32-26.47 13.32-25.78ZM37.86-12.93Q37.86-16.35 36.98-17.99 36.09-19.62 34.06-19.62 32.02-19.62 31.13-17.97 30.23-16.33 30.23-12.93 30.23-9.53 31.14-7.84 32.05-6.14 34.08-6.14 36.12-6.14 36.99-7.82 37.86-9.5 37.86-12.93ZM46.91-12.94L46.91-12.94Q46.91-6.62 43.51-3.08 40.11 0.46 34.12 0.46 28.13 0.46 24.64-3.16L24.64-3.16Q21.18-6.77 21.18-12.99 21.18-19.21 24.57-22.72L24.57-22.72Q27.98-26.24 34.12-26.24L34.12-26.24Q39.86-26.31 43.43-22.64 46.99-18.96 46.91-12.94ZM89.81-25.78L82.73 0 73.23 0 70.32-12.29 69.64-16 69.18-18.98 69.03-18.98Q67.97-12.84 67.54-10.95L67.54-10.95 64.91 0 55.58 0 48.53-25.78 57.3-25.78 59.4-15.87Q60.36-10.89 60.56-7.41L60.56-7.41 60.69-7.41Q60.76-9.4 61.95-15.37L61.95-15.37 64.33-25.78 74.16-25.78 76.33-15.24Q77.37-10.29 77.65-7.41L77.65-7.41 77.8-7.41Q77.9-8.9 78.23-11.73L78.23-11.73Q78.61-14.51 78.96-15.87L78.96-15.87 81.24-25.78 89.81-25.78ZM118.62-16.76L118.62 0 109.72 0 109.72-14.05Q109.72-19.24 106.62-19.24L106.62-19.24Q104.39-19.24 103.37-17.45 102.34-15.67 102.34-11.27L102.34-11.27 102.34 0 93.45 0 93.45-25.78 100.17-25.78 101.28-22.6 101.81-22.6Q104.09-26.24 109.6-26.24L109.6-26.24Q113.87-26.24 116.25-23.75 118.62-21.26 118.62-16.76L118.62-16.76ZM140.36-16.08Q140.33-17.95 139.32-19.06 138.31-20.17 136.63-20.17 134.95-20.17 133.93-19.15 132.9-18.12 132.73-16.08L132.73-16.08 140.36-16.08ZM137.12 0.46L137.12 0.46Q130.68 0.46 127.11-2.96L127.11-2.96Q123.55-6.42 123.55-12.84 123.55-19.26 126.84-22.75 130.12-26.24 136.11-26.24 142.1-26.24 145.28-23.18 148.45-20.12 148.45-14.43L148.45-14.43 148.45-10.49 132.55-10.49Q132.62-8.32 134.12-7.09 135.61-5.86 138.05-5.86 140.49-5.86 142.48-6.31 144.48-6.75 146.75-7.84L146.75-7.84 146.75-1.44Q144.73-0.38 142.5 0.04 140.26 0.46 137.12 0.46ZM169.02-26.24L169.02-26.24Q169.88-26.24 171.73-25.96L171.73-25.96 170.94-17.57Q169.78-17.85 167.91-17.85L167.91-17.85Q162.35-17.85 162.35-12.66L162.35-12.66 162.35 0 153.45 0 153.45-25.78 160.07-25.78 161.46-21.66 161.89-21.66Q163.01-23.74 165.02-24.99 167.02-26.24 169.02-26.24Z"
                                                                                  opacity="1"
                                                                                  transform="matrix(1,0,0,1,0,0)"
                                                                                  fill="#c10000"
                                                                                  class="undefined-text-0"
                                                                                  data-fill-palette-color="primary"
                                                                                  id="text-0"></path>
                                                                        </svg>
                                                                    </g>
                                                                </svg>
                                                            </g>
                                                            <g transform="matrix(1,0,0,1,0,50.39486677169085)">
                                                                <svg viewBox="0 0 208 17.459766122496237"
                                                                     height="17.459766122496237" width="208">
                                                                    <g transform="matrix(1,0,0,1,0,0)">
                                                                        <svg width="208"
                                                                             viewBox="2.1 -35.75 431.81 36.25"
                                                                             height="17.459766122496237"
                                                                             data-palette-color="#999">
                                                                            <path d="M18.75 0.25L18.75 0.25Q15 0.25 11.95-1.25 8.9-2.75 6.7-5.33 4.5-7.9 3.3-11.13 2.1-14.35 2.1-17.75L2.1-17.75Q2.1-21.3 3.35-24.53 4.6-27.75 6.88-30.28 9.15-32.8 12.2-34.27 15.25-35.75 18.8-35.75L18.8-35.75Q22.55-35.75 25.6-34.2 28.65-32.65 30.83-30.05 33-27.45 34.2-24.25 35.4-21.05 35.4-17.7L35.4-17.7Q35.4-14.15 34.15-10.93 32.9-7.7 30.65-5.18 28.4-2.65 25.35-1.2 22.3 0.25 18.75 0.25ZM5.6-17.75L5.6-17.75Q5.6-14.85 6.55-12.18 7.5-9.5 9.25-7.43 11-5.35 13.43-4.13 15.85-2.9 18.75-2.9L18.75-2.9Q21.8-2.9 24.23-4.17 26.65-5.45 28.38-7.58 30.1-9.7 31-12.35 31.9-15 31.9-17.75L31.9-17.75Q31.9-20.65 30.95-23.3 30-25.95 28.23-28.05 26.45-30.15 24.05-31.35 21.65-32.55 18.75-32.55L18.75-32.55Q15.75-32.55 13.33-31.3 10.9-30.05 9.18-27.93 7.45-25.8 6.53-23.15 5.6-20.5 5.6-17.75ZM64.65-3.5L74.1-26.05 77.45-26.05 66.25 0 63.3 0 57.85-12.95 52.45 0 49.5 0 38.3-26.05 41.6-26.05 51.1-3.5 55.9-15.25 51.5-26 54.55-26 57.85-17.55 61.2-26 64.2-26 59.85-15.25 64.65-3.5ZM103.85-15.25L103.85 0 100.45 0 100.45-14.55Q100.45-19.15 99.1-21.28 97.75-23.4 94.85-23.4L94.85-23.4Q92.85-23.4 90.9-22.43 88.95-21.45 87.47-19.78 86-18.1 85.35-15.95L85.35-15.95 85.35 0 81.95 0 81.95-26.05 85.05-26.05 85.05-20.15Q86.1-22.05 87.8-23.48 89.5-24.9 91.65-25.7 93.8-26.5 96.1-26.5L96.1-26.5Q98.25-26.5 99.75-25.7 101.25-24.9 102.15-23.43 103.05-21.95 103.45-19.88 103.85-17.8 103.85-15.25L103.85-15.25ZM119.14-35.5L122.99-35.5 134.59-16.4 146.29-35.5 150.09-35.5 136.34-13.2 136.34 0 132.84 0 132.84-13.3 119.14-35.5ZM161.14 0.5L161.14 0.5Q158.34 0.5 155.96-0.58 153.59-1.65 151.86-3.53 150.14-5.4 149.19-7.83 148.24-10.25 148.24-12.95L148.24-12.95Q148.24-15.75 149.19-18.18 150.14-20.6 151.89-22.48 153.64-24.35 156.01-25.43 158.39-26.5 161.19-26.5L161.19-26.5Q163.99-26.5 166.34-25.43 168.69-24.35 170.44-22.48 172.19-20.6 173.14-18.18 174.09-15.75 174.09-12.95L174.09-12.95Q174.09-10.25 173.14-7.83 172.19-5.4 170.46-3.53 168.74-1.65 166.36-0.58 163.99 0.5 161.14 0.5ZM151.69-12.9L151.69-12.9Q151.69-10 152.96-7.63 154.24-5.25 156.39-3.88 158.54-2.5 161.14-2.5L161.14-2.5Q163.74-2.5 165.89-3.9 168.04-5.3 169.34-7.73 170.64-10.15 170.64-13L170.64-13Q170.64-15.9 169.34-18.3 168.04-20.7 165.89-22.1 163.74-23.5 161.14-23.5L161.14-23.5Q158.54-23.5 156.41-22.05 154.29-20.6 152.99-18.23 151.69-15.85 151.69-12.9ZM179.54-10.75L179.54-10.75 179.54-26.05 182.94-26.05 182.94-11.35Q182.94-6.9 184.46-4.7 185.99-2.5 188.99-2.5L188.99-2.5Q190.99-2.5 192.86-3.38 194.74-4.25 196.19-5.88 197.64-7.5 198.39-9.65L198.39-9.65 198.39-26.05 201.79-26.05 201.79-4.1Q201.79-3.4 202.09-3.08 202.39-2.75 202.99-2.7L202.99-2.7 202.99 0Q202.39 0.05 202.04 0.08 201.69 0.1 201.39 0.1L201.39 0.1Q200.39 0 199.66-0.7 198.94-1.4 198.89-2.4L198.89-2.4 198.79-5.9Q197.09-2.9 194.16-1.2 191.24 0.5 187.84 0.5L187.84 0.5Q183.74 0.5 181.64-2.35 179.54-5.2 179.54-10.75ZM222.48-26.15L222.48-23.05Q219.08-22.95 216.51-21.15 213.93-19.35 212.88-16.2L212.88-16.2 212.88 0 209.48 0 209.48-26.05 212.68-26.05 212.68-19.8Q214.03-22.55 216.26-24.25 218.48-25.95 220.98-26.15L220.98-26.15Q221.48-26.2 221.86-26.2 222.23-26.2 222.48-26.15L222.48-26.15ZM242.83 0L239.33 0 239.33-35.5 262.63-35.5 262.63-32.4 242.83-32.4 242.83-19.35 259.53-19.35 259.53-16.45 242.83-16.45 242.83 0ZM277.68 0.5L277.68 0.5Q274.88 0.5 272.48-0.58 270.08-1.65 268.33-3.53 266.58-5.4 265.6-7.85 264.63-10.3 264.63-13.1L264.63-13.1Q264.63-16.75 266.3-19.8 267.98-22.85 270.93-24.68 273.88-26.5 277.63-26.5L277.63-26.5Q281.48-26.5 284.35-24.65 287.23-22.8 288.88-19.78 290.53-16.75 290.53-13.15L290.53-13.15Q290.53-12.75 290.53-12.38 290.53-12 290.48-11.8L290.48-11.8 268.18-11.8Q268.43-9 269.75-6.83 271.08-4.65 273.2-3.38 275.33-2.1 277.83-2.1L277.83-2.1Q280.38-2.1 282.65-3.4 284.93-4.7 285.83-6.8L285.83-6.8 288.78-6Q287.98-4.15 286.33-2.65 284.68-1.15 282.45-0.33 280.23 0.5 277.68 0.5ZM268.08-14.25L268.08-14.25 287.33-14.25Q287.13-17.1 285.8-19.25 284.48-21.4 282.35-22.63 280.23-23.85 277.68-23.85L277.68-23.85Q275.13-23.85 273.03-22.63 270.93-21.4 269.6-19.23 268.28-17.05 268.08-14.25ZM293.67-7.5L293.67-7.5Q293.67-9.95 295.07-11.73 296.47-13.5 298.95-14.48 301.42-15.45 304.67-15.45L304.67-15.45Q306.57-15.45 308.62-15.15 310.67-14.85 312.27-14.25L312.27-14.25 312.27-16.45Q312.27-19.75 310.32-21.7 308.37-23.65 304.92-23.65L304.92-23.65Q302.82-23.65 300.8-22.88 298.77-22.1 296.57-20.6L296.57-20.6 295.27-23Q297.82-24.75 300.27-25.63 302.72-26.5 305.27-26.5L305.27-26.5Q310.07-26.5 312.87-23.75 315.67-21 315.67-16.15L315.67-16.15 315.67-4.1Q315.67-3.4 315.97-3.08 316.27-2.75 316.92-2.7L316.92-2.7 316.92 0Q316.37 0.05 315.97 0.1 315.57 0.15 315.37 0.1L315.37 0.1Q314.12 0.05 313.47-0.7 312.82-1.45 312.77-2.3L312.77-2.3 312.72-4.2Q310.97-1.95 308.17-0.73 305.37 0.5 302.47 0.5L302.47 0.5Q299.97 0.5 297.95-0.58 295.92-1.65 294.8-3.48 293.67-5.3 293.67-7.5ZM311.12-5.5L311.12-5.5Q311.67-6.2 311.97-6.85 312.27-7.5 312.27-8L312.27-8 312.27-11.8Q310.57-12.45 308.75-12.8 306.92-13.15 305.07-13.15L305.07-13.15Q301.42-13.15 299.17-11.7 296.92-10.25 296.92-7.75L296.92-7.75Q296.92-6.3 297.67-5.03 298.42-3.75 299.87-2.93 301.32-2.1 303.27-2.1L303.27-2.1Q305.72-2.1 307.85-3.05 309.97-4 311.12-5.5ZM334.42-4L335.32-1.25Q334.92-1.1 334.07-0.7 333.22-0.3 332.02 0 330.82 0.3 329.42 0.3L329.42 0.3Q327.97 0.3 326.7-0.25 325.42-0.8 324.67-1.93 323.92-3.05 323.92-4.7L323.92-4.7 323.92-23.35 320.32-23.35 320.32-26.05 323.92-26.05 323.92-34.85 327.32-34.85 327.32-26.05 333.32-26.05 333.32-23.35 327.32-23.35 327.32-5.65Q327.42-4.25 328.35-3.55 329.27-2.85 330.47-2.85L330.47-2.85Q331.87-2.85 333.02-3.33 334.17-3.8 334.42-4L334.42-4ZM339.32-10.75L339.32-10.75 339.32-26.05 342.72-26.05 342.72-11.35Q342.72-6.9 344.24-4.7 345.77-2.5 348.77-2.5L348.77-2.5Q350.77-2.5 352.64-3.38 354.52-4.25 355.97-5.88 357.42-7.5 358.17-9.65L358.17-9.65 358.17-26.05 361.57-26.05 361.57-4.1Q361.57-3.4 361.87-3.08 362.17-2.75 362.77-2.7L362.77-2.7 362.77 0Q362.17 0.05 361.82 0.08 361.47 0.1 361.17 0.1L361.17 0.1Q360.17 0 359.44-0.7 358.72-1.4 358.67-2.4L358.67-2.4 358.57-5.9Q356.87-2.9 353.94-1.2 351.02 0.5 347.62 0.5L347.62 0.5Q343.52 0.5 341.42-2.35 339.32-5.2 339.32-10.75ZM382.27-26.15L382.27-23.05Q378.87-22.95 376.29-21.15 373.72-19.35 372.67-16.2L372.67-16.2 372.67 0 369.27 0 369.27-26.05 372.47-26.05 372.47-19.8Q373.82-22.55 376.04-24.25 378.27-25.95 380.77-26.15L380.77-26.15Q381.27-26.2 381.64-26.2 382.02-26.2 382.27-26.15L382.27-26.15ZM397.26 0.5L397.26 0.5Q394.46 0.5 392.06-0.58 389.66-1.65 387.91-3.53 386.16-5.4 385.19-7.85 384.21-10.3 384.21-13.1L384.21-13.1Q384.21-16.75 385.89-19.8 387.56-22.85 390.51-24.68 393.46-26.5 397.21-26.5L397.21-26.5Q401.06-26.5 403.94-24.65 406.81-22.8 408.46-19.78 410.11-16.75 410.11-13.15L410.11-13.15Q410.11-12.75 410.11-12.38 410.11-12 410.06-11.8L410.06-11.8 387.76-11.8Q388.01-9 389.34-6.83 390.66-4.65 392.79-3.38 394.91-2.1 397.41-2.1L397.41-2.1Q399.96-2.1 402.24-3.4 404.51-4.7 405.41-6.8L405.41-6.8 408.36-6Q407.56-4.15 405.91-2.65 404.26-1.15 402.04-0.33 399.81 0.5 397.26 0.5ZM387.66-14.25L387.66-14.25 406.91-14.25Q406.71-17.1 405.39-19.25 404.06-21.4 401.94-22.63 399.81-23.85 397.26-23.85L397.26-23.85Q394.71-23.85 392.61-22.63 390.51-21.4 389.19-19.23 387.86-17.05 387.66-14.25ZM423.91 0.5L423.91 0.5Q420.71 0.5 417.96-0.55 415.21-1.6 413.21-3.75L413.21-3.75 414.61-6.15Q416.81-4.1 419.04-3.18 421.26-2.25 423.76-2.25L423.76-2.25Q426.81-2.25 428.71-3.48 430.61-4.7 430.61-7L430.61-7Q430.61-8.55 429.69-9.38 428.76-10.2 427.04-10.73 425.31-11.25 422.91-11.85L422.91-11.85Q420.21-12.6 418.39-13.43 416.56-14.25 415.64-15.53 414.71-16.8 414.71-18.85L414.71-18.85Q414.71-21.4 415.99-23.08 417.26-24.75 419.49-25.63 421.71-26.5 424.46-26.5L424.46-26.5Q427.46-26.5 429.76-25.55 432.06-24.6 433.51-22.9L433.51-22.9 431.86-20.6Q430.46-22.2 428.54-22.98 426.61-23.75 424.26-23.75L424.26-23.75Q422.66-23.75 421.21-23.33 419.76-22.9 418.84-21.93 417.91-20.95 417.91-19.25L417.91-19.25Q417.91-17.85 418.61-17.07 419.31-16.3 420.71-15.78 422.11-15.25 424.16-14.65L424.16-14.65Q427.11-13.85 429.31-13.03 431.51-12.2 432.71-10.9 433.91-9.6 433.91-7.25L433.91-7.25Q433.91-3.6 431.16-1.55 428.41 0.5 423.91 0.5Z"
                                                                                  opacity="1"
                                                                                  transform="matrix(1,0,0,1,0,0)"
                                                                                  fill="#999"
                                                                                  class="undefined-text-1"
                                                                                  data-fill-palette-color="secondary"
                                                                                  id="text-1"></path>
                                                                        </svg>
                                                                    </g>
                                                                </svg>
                                                            </g>
                                                        </svg>
                                                    </g>
                                                </svg>
                                            </g>
                                            <g></g>
                                        </svg>
                                    </g>
                                </svg>
                            </g>
                        </svg>
                    </g>
                </svg>
            </g>
        </svg>
        <rect width="320" height="360" fill="transparent" stroke="transparent"></rect>
    </g>
    <defs></defs>
</svg>
